<?xml version="1.0" encoding="utf-8"?>
<!-- Generator: Fusion 360, Shaper Origin Export Add-In, Version 1.5.0  -->
<svg enable-background="new 0 0 4.0000001 4.0000001" height="4.0000001cm" shaper:fusionaddin="version:1.5.0" version="1.1" viewBox="0 0 4.0000001 4.0000001" width="4.0000001cm" x="0cm" xml:space="preserve" xmlns="http://www.w3.org/2000/svg" xmlns:shaper="http://www.shapertools.com/namespaces/shaper" xmlns:xlink="http://www.w3.org/1999/xlink" y="0cm"><path d="M0,4.0000001 L0,0 4.0000001,0 4.0000001,4.0000001 0,4.0000001z" fill="rgb(0,0,0)" shaper:cutDepth="0" shaper:pathType="exterior" transform="matrix(1,0,0,-1,-0,4.0000001)" vector-effect="non-scaling-stroke" /><path d="M0.1584034,3.6499548 a0.2,0.2 0 1,1 0.4,0 a0.2,0.2 0 1,1 -0.4,0z" fill="rgb(255,255,255)" shaper:cutDepth="0" shaper:pathType="interior" stroke="rgb(0,0,0)" transform="matrix(1,0,0,-1,-0,4.0000001)" vector-effect="non-scaling-stroke" /><path d="M3.4584034,3.6499548 a0.2,0.2 0 1,1 0.4,0 a0.2,0.2 0 1,1 -0.4,0z" fill="rgb(255,255,255)" shaper:cutDepth="0" shaper:pathType="interior" stroke="rgb(0,0,0)" transform="matrix(1,0,0,-1,-0,4.0000001)" vector-effect="non-scaling-stroke" /><path d="M0.1584034,0.3499548 a0.2,0.2 0 1,1 0.4,0 a0.2,0.2 0 1,1 -0.4,0z" fill="rgb(255,255,255)" shaper:cutDepth="0" shaper:pathType="interior" stroke="rgb(0,0,0)" transform="matrix(1,0,0,-1,-0,4.0000001)" vector-effect="non-scaling-stroke" /><path d="M3.4584034,0.3499548 a0.2,0.2 0 1,1 0.4,0 a0.2,0.2 0 1,1 -0.4,0z" fill="rgb(255,255,255)" shaper:cutDepth="0" shaper:pathType="interior" stroke="rgb(0,0,0)" transform="matrix(1,0,0,-1,-0,4.0000001)" vector-effect="non-scaling-stroke" /><path d="M3.2500001,3.25 L3.7500001,3.25 3.7500001,0.75 3.2500001,0.75 3.2500001,0.25 0.7500001,0.25 0.7500001,0.75 0.2500001,0.75 0.2500001,3.25 0.7500001,3.25 0.7500001,3.75 3.2500001,3.75 3.2500001,3.25z" fill="rgb(255,255,255)" shaper:cutDepth="0" shaper:pathType="interior" stroke="rgb(0,0,0)" transform="matrix(1,0,0,-1,-0,4.0000001)" vector-effect="non-scaling-stroke" /></svg>