<?xml version="1.0" encoding="utf-8"?>
<!-- Generator: Fusion 360, Shaper Origin Export Add-In, Version 1.5.0  -->
<svg enable-background="new 0 0 7 4" height="4cm" shaper:fusionaddin="version:1.5.0" version="1.1" viewBox="0 0 7 4" width="7cm" x="0cm" xml:space="preserve" xmlns="http://www.w3.org/2000/svg" xmlns:shaper="http://www.shapertools.com/namespaces/shaper" xmlns:xlink="http://www.w3.org/1999/xlink" y="0cm"><path d="M-1,1.5 L0,1.5 0,0 4,0 4,1.5 5,1.5 A0.5,0.5 270 0,1 5,2.5 L4,2.5 4,4 0,4 0,2.5 -1,2.5 A0.5,0.5 90 0,1 -1,1.5z" fill="rgb(0,0,0)" shaper:cutDepth="0" shaper:pathType="exterior" transform="matrix(1,0,0,-1,1.5,4)" vector-effect="non-scaling-stroke" /><path d="M1.827,0.6964399 L1.827,0.5035626 1.786995,0.489002 1.786995,0.473 1.613005,0.473 1.613005,0.489002 1.573,0.5035626 1.573,0.6964399 1.613005,0.7110005 1.613005,0.7429995 1.573,0.7575601 1.573,0.9504374 1.613005,0.964998 1.613005,0.981 1.786995,0.981 1.786995,0.964998 1.827,0.9504374 1.827,0.7575601 1.786995,0.7429995 1.786995,0.7110005 1.827,0.6964399z" fill="rgb(255,255,255)" shaper:cutDepth="0" shaper:pathType="interior" stroke="rgb(0,0,0)" transform="matrix(1,0,0,-1,1.5,4)" vector-effect="non-scaling-stroke" /><path d="M2.427,0.6964399 L2.427,0.5035626 2.386995,0.489002 2.386995,0.473 2.213005,0.473 2.213005,0.489002 2.173,0.5035626 2.173,0.6964399 2.213005,0.7110005 2.213005,0.7429995 2.173,0.7575601 2.173,0.9504374 2.213005,0.964998 2.213005,0.981 2.386995,0.981 2.386995,0.964998 2.427,0.9504374 2.427,0.7575601 2.386995,0.7429995 2.386995,0.7110005 2.427,0.6964399z" fill="rgb(255,255,255)" shaper:cutDepth="0" shaper:pathType="interior" stroke="rgb(0,0,0)" transform="matrix(1,0,0,-1,1.5,4)" vector-effect="non-scaling-stroke" /><path d="M1.827,3.2424399 L1.827,3.0495626 1.786995,3.035002 1.786995,3.019 1.613005,3.019 1.613005,3.035002 1.573,3.0495626 1.573,3.2424399 1.613005,3.2570005 1.613005,3.2889995 1.573,3.3035601 1.573,3.4964374 1.613005,3.510998 1.613005,3.527 1.786995,3.527 1.786995,3.510998 1.827,3.4964374 1.827,3.3035601 1.786995,3.2889995 1.786995,3.2570005 1.827,3.2424399z" fill="rgb(255,255,255)" shaper:cutDepth="0" shaper:pathType="interior" stroke="rgb(0,0,0)" transform="matrix(1,0,0,-1,1.5,4)" vector-effect="non-scaling-stroke" /><path d="M2.427,3.2424399 L2.427,3.0495626 2.386995,3.035002 2.386995,3.019 2.213005,3.019 2.213005,3.035002 2.173,3.0495626 2.173,3.2424399 2.213005,3.2570005 2.213005,3.2889995 2.173,3.3035601 2.173,3.4964374 2.213005,3.510998 2.213005,3.527 2.386995,3.527 2.386995,3.510998 2.427,3.4964374 2.427,3.3035601 2.386995,3.2889995 2.386995,3.2570005 2.427,3.2424399z" fill="rgb(255,255,255)" shaper:cutDepth="0" shaper:pathType="interior" stroke="rgb(0,0,0)" transform="matrix(1,0,0,-1,1.5,4)" vector-effect="non-scaling-stroke" /><path d="M3.4415967,0.3500452 a0.2,0.2 0 1,1 0.4,0 a0.2,0.2 0 1,1 -0.4,0z" fill="rgb(255,255,255)" shaper:cutDepth="0" shaper:pathType="interior" stroke="rgb(0,0,0)" transform="matrix(1,0,0,-1,1.5,4)" vector-effect="non-scaling-stroke" /><path d="M0.1415967,0.3500452 a0.2,0.2 0 1,1 0.4,0 a0.2,0.2 0 1,1 -0.4,0z" fill="rgb(255,255,255)" shaper:cutDepth="0" shaper:pathType="interior" stroke="rgb(0,0,0)" transform="matrix(1,0,0,-1,1.5,4)" vector-effect="non-scaling-stroke" /><path d="M3.4415967,3.6500452 a0.2,0.2 0 1,1 0.4,0 a0.2,0.2 0 1,1 -0.4,0z" fill="rgb(255,255,255)" shaper:cutDepth="0" shaper:pathType="interior" stroke="rgb(0,0,0)" transform="matrix(1,0,0,-1,1.5,4)" vector-effect="non-scaling-stroke" /><path d="M0.1415967,3.6500452 a0.2,0.2 0 1,1 0.4,0 a0.2,0.2 0 1,1 -0.4,0z" fill="rgb(255,255,255)" shaper:cutDepth="0" shaper:pathType="interior" stroke="rgb(0,0,0)" transform="matrix(1,0,0,-1,1.5,4)" vector-effect="non-scaling-stroke" /></svg>