<?xml version="1.0" encoding="utf-8"?>
<!-- Generator: Fusion 360, Shaper Origin Export Add-In, Version 1.5.0  -->
<svg enable-background="new 0 0 7 4" height="4cm" shaper:fusionaddin="version:1.5.0" version="1.1" viewBox="0 0 7 4" width="7cm" x="0cm" xml:space="preserve" xmlns="http://www.w3.org/2000/svg" xmlns:shaper="http://www.shapertools.com/namespaces/shaper" xmlns:xlink="http://www.w3.org/1999/xlink" y="0cm"><path d="M5,1.5 A0.5,0.5 270 0,1 5,2.5 L4,2.5 4,4 -0,4 -0,2.5 -1,2.5 A0.5,0.5 90 0,1 -1,1.5 L-0,1.5 -0,0 4,0 4,1.5 5,1.5z" fill="rgb(0,0,0)" shaper:cutDepth="0" shaper:pathType="exterior" transform="matrix(1,0,0,-1,1.5,4)" vector-effect="non-scaling-stroke" /><path d="M0.1500452,3.6415967 a0.2,0.2 0 1,1 0.4,0 a0.2,0.2 0 1,1 -0.4,0z" fill="rgb(255,255,255)" shaper:cutDepth="0" shaper:pathType="interior" stroke="rgb(0,0,0)" transform="matrix(1,0,0,-1,1.5,4)" vector-effect="non-scaling-stroke" /><path d="M0.1500452,0.3415967 a0.2,0.2 0 1,1 0.4,0 a0.2,0.2 0 1,1 -0.4,0z" fill="rgb(255,255,255)" shaper:cutDepth="0" shaper:pathType="interior" stroke="rgb(0,0,0)" transform="matrix(1,0,0,-1,1.5,4)" vector-effect="non-scaling-stroke" /><path d="M3.4500452,3.6415967 a0.2,0.2 0 1,1 0.4,0 a0.2,0.2 0 1,1 -0.4,0z" fill="rgb(255,255,255)" shaper:cutDepth="0" shaper:pathType="interior" stroke="rgb(0,0,0)" transform="matrix(1,0,0,-1,1.5,4)" vector-effect="non-scaling-stroke" /><path d="M3.4500452,0.3415967 a0.2,0.2 0 1,1 0.4,0 a0.2,0.2 0 1,1 -0.4,0z" fill="rgb(255,255,255)" shaper:cutDepth="0" shaper:pathType="interior" stroke="rgb(0,0,0)" transform="matrix(1,0,0,-1,1.5,4)" vector-effect="non-scaling-stroke" /><path d="M1.381002,0.686995 L1.3955626,0.727 1.381002,0.767005 1.365,0.767005 1.365,0.940995 1.381002,0.940995 1.3955626,0.981 1.5884399,0.981 1.6030005,0.940995 1.6349995,0.940995 1.6495601,0.981 1.8424399,0.981 1.8570005,0.940995 1.8889995,0.940995 1.9035601,0.981 2.0964399,0.981 2.1110005,0.940995 2.1429995,0.940995 2.1575601,0.981 2.3504399,0.981 2.3650005,0.940995 2.3969995,0.940995 2.4115601,0.981 2.6044374,0.981 2.618998,0.940995 2.635,0.940995 2.635,0.767005 2.618998,0.767005 2.6044374,0.727 2.618998,0.686995 2.635,0.686995 2.635,0.513005 2.618998,0.513005 2.6044374,0.473 2.4115601,0.473 2.3969995,0.513005 2.3650005,0.513005 2.3504399,0.473 2.1575601,0.473 2.1429995,0.513005 2.1110005,0.513005 2.0964399,0.473 1.9035601,0.473 1.8889995,0.513005 1.8570005,0.513005 1.8424399,0.473 1.6495601,0.473 1.6349995,0.513005 1.6030005,0.513005 1.5884399,0.473 1.3955626,0.473 1.381002,0.513005 1.365,0.513005 1.365,0.686995 1.381002,0.686995z" fill="rgb(255,255,255)" shaper:cutDepth="0" shaper:pathType="interior" stroke="rgb(0,0,0)" transform="matrix(1,0,0,-1,1.5,4)" vector-effect="non-scaling-stroke" /><path d="M1.381002,3.232995 L1.3955626,3.273 1.381002,3.313005 1.365,3.313005 1.365,3.486995 1.381002,3.486995 1.3955626,3.527 1.5884399,3.527 1.6030005,3.486995 1.6349995,3.486995 1.6495601,3.527 1.8424399,3.527 1.8570005,3.486995 1.8889995,3.486995 1.9035601,3.527 2.0964399,3.527 2.1110005,3.486995 2.1429995,3.486995 2.1575601,3.527 2.3504399,3.527 2.3650005,3.486995 2.3969995,3.486995 2.4115601,3.527 2.6044374,3.527 2.618998,3.486995 2.635,3.486995 2.635,3.313005 2.618998,3.313005 2.6044374,3.273 2.618998,3.232995 2.635,3.232995 2.635,3.059005 2.618998,3.059005 2.6044374,3.019 2.4115601,3.019 2.3969995,3.059005 2.3650005,3.059005 2.3504399,3.019 2.1575601,3.019 2.1429995,3.059005 2.1110005,3.059005 2.0964399,3.019 1.9035601,3.019 1.8889995,3.059005 1.8570005,3.059005 1.8424399,3.019 1.6495601,3.019 1.6349995,3.059005 1.6030005,3.059005 1.5884399,3.019 1.3955626,3.019 1.381002,3.059005 1.365,3.059005 1.365,3.232995 1.381002,3.232995z" fill="rgb(255,255,255)" shaper:cutDepth="0" shaper:pathType="interior" stroke="rgb(0,0,0)" transform="matrix(1,0,0,-1,1.5,4)" vector-effect="non-scaling-stroke" /></svg>